<svg xmlns="http://www.w3.org/2000/svg" data-name="Layer 1" viewBox="0 0 128 128"><path d="M89.1,128a6.59,6.59,0,0,0,6.46-5.73L107.3,24h2.2a2,2,0,0,0,2-2V16a8,8,0,0,0-8-8H73.8A10,10,0,0,0,54.2,8H24.5a8,8,0,0,0-8,8v6a2,2,0,0,0,2,2h2.2L25,60h0a2,2,0,0,0,.06.45l7.38,61.81A6.59,6.59,0,0,0,38.9,128ZM62,106H50.88l-.53-8H62Zm0-12H50.09l-.53-8H62Zm0-12H49.31l-.53-8H62Zm0-12H48.52L48,62H62Zm0-12H47.73l-.53-8H62Zm0-12H46.94l-.53-8H62Zm15.41,60H66V98H77.94Zm.79-12H66V86H78.73ZM79,82H66V74H79.52Zm.79-12H66V62H80.3Zm.79-12H66V50H81.09ZM66,46V38H81.88l-.53,8Zm27.48,60H81.42l.53-8H94.43Zm1.43-12H82.21l.53-8H95.86Zm1.43-12H83l.53-8H97.3Zm1.43-12h-14l.53-8H98.73Zm1.43-12H84.58l.53-8h15.06Zm1.43-12H85.36l.53-8H101.6ZM64,4a6,6,0,0,1,5.65,4H58.35A6,6,0,0,1,64,4ZM20.5,20V16a4,4,0,0,1,4-4h79a4,4,0,0,1,4,4v4Zm5.9,18h16l.53,8H27.36Zm1.43,12H43.2l.53,8H28.79Zm1.43,12H44l.53,8H30.22ZM30.7,74H44.77l.53,8H31.66Zm1.43,12H45.56l.53,8h-13Zm1.43,12H46.35l.53,8H34.52Z"/></svg>